<svg width="120" height="120" viewBox="0 0 120 120" fill="none" xmlns="http://www.w3.org/2000/svg">
<rect width="120" height="120" rx="60" fill="#121212"/>
<path d="M44 76V61.9999H58L51.566 68.4399C53.7859 70.71 56.8249 71.9927 60 71.9999C65.0789 71.9924 69.603 68.7884 71.296 63.9999H71.332C71.5611 63.3492 71.7344 62.6801 71.85 61.9999H75.874C74.8661 69.9997 68.063 75.9997 60 76H59.98C55.7375 76.0126 51.6663 74.3274 48.674 71.3199L44 76ZM48.148 57.9999H44.124C45.1315 50.0031 51.93 44.0042 59.99 43.9998H60C64.2433 43.9863 68.3154 45.6716 71.308 48.6799L76 43.9998V57.9999H62L68.444 51.5599C66.2218 49.2872 63.1786 48.0042 60 47.9999C54.9211 48.0074 50.397 51.2115 48.704 55.9999H48.668C48.4371 56.6501 48.2638 57.3194 48.15 57.9999H48.148Z" fill="white"/>
</svg>
